<?xml version="1.0" encoding="UTF-8"?>
<svg width="200" height="200" version="1.1" viewBox="0 0 52.917 52.917" xmlns="http://www.w3.org/2000/svg" xmlns:cc="http://creativecommons.org/ns#" xmlns:dc="http://purl.org/dc/elements/1.1/" xmlns:rdf="http://www.w3.org/1999/02/22-rdf-syntax-ns#">
<metadata>
<rdf:RDF>
<cc:Work rdf:about="">
<dc:format>image/svg+xml</dc:format>
<dc:type rdf:resource="http://purl.org/dc/dcmitype/StillImage"/>
<dc:title/>
</cc:Work>
</rdf:RDF>
</metadata>
<g transform="translate(0 -244.08)">
<g>
<circle cx="26.458" cy="270.54" r="26.458" fill="#fff"/>
<path d="m34.479 273.22c0-0.30371-0.2485-0.52461-0.55224-0.52461h-1.8223l-3.3686-13.502-0.0276-0.13805c-0.08284-0.19329-0.27612-0.33134-0.497-0.33134h-3.6171c-0.22089 0-0.41417 0.13805-0.497 0.33134l-0.02762 0.16566-5.6051 22.393c0 0.0276 0 0.0553-0.02762 0.0553v0.11047c0 0.33132 0.2485 0.57983 0.52462 0.57983h3.341c0.22089 0 0.44178-0.16567 0.497-0.38655 0-0.0276 0.0276-0.0553 0.0276-0.0553l1.2149-4.9424h4.7215l1.2149 4.9148 0.02762 0.0828c0.08284 0.2209 0.27612 0.38656 0.49701 0.38656h3.341c0.30373 0 0.52462-0.24851 0.52462-0.57984v-0.0553l-0.02759-0.13806-1.1597-4.6111h0.74551c0.30373 0 0.55224-0.22091 0.55224-0.52462zm-9.3603-0.52461 1.2977-5.1081 1.2701 5.1081z" fill="#009485"/>
</g>
</g>
</svg>
